<?xml version="1.0" encoding="utf-8"?>
<!-- Generator: Adobe Illustrator 12.0.1, SVG Export Plug-In . SVG Version: 6.00 Build 51448)  -->
<!DOCTYPE svg PUBLIC "-//W3C//DTD SVG 1.1//EN" "http://www.w3.org/Graphics/SVG/1.1/DTD/svg11.dtd" [
	<!ENTITY ns_svg "http://www.w3.org/2000/svg">
	<!ENTITY ns_xlink "http://www.w3.org/1999/xlink">
]>
<svg  version="1.1" id="Layer_1" xmlns="&ns_svg;" xmlns:xlink="&ns_xlink;" width="198" height="234" viewBox="0 0 198 234"
	 overflow="visible" enable-background="new 0 0 198 234" xml:space="preserve">
<g>
	<rect fill-rule="evenodd" clip-rule="evenodd" fill="#FFFFFF" width="198" height="234"/>
	<path fill-rule="evenodd" clip-rule="evenodd" fill="#DFDFE1" d="M0,0h198v156H0V0z M0,0"/>
	<rect y="156" fill-rule="evenodd" clip-rule="evenodd" fill="#F0C753" width="198" height="78"/>
	<g>
		<path fill="#929497" d="M18.372,31.447V16.271h2.153v13.566h6.829v1.609H18.372z"/>
		<path fill="#929497" d="M36.719,31.447v-2.092c-1.073,1.565-2.375,2.348-3.907,2.348c-0.971,0-1.743-0.306-2.317-0.917
			c-0.574-0.612-0.861-1.438-0.861-2.477v-7.998h2.02v7.342c0,0.834,0.121,1.427,0.364,1.779c0.242,0.352,0.647,0.528,1.215,0.528
			c1.23,0,2.393-0.811,3.486-2.431v-7.219h2.02v11.136H36.719z"/>
		<path fill="#929497" d="M47.263,31.703c-1.504,0-2.751-0.557-3.743-1.671s-1.487-2.519-1.487-4.214
			c0-1.812,0.49-3.224,1.472-4.235c0.98-1.012,2.35-1.518,4.106-1.518c0.868,0,1.839,0.12,2.912,0.358v1.692
			c-1.142-0.335-2.071-0.503-2.789-0.503c-1.032,0-1.861,0.389-2.486,1.164c-0.626,0.776-0.938,1.811-0.938,3.102
			c0,1.252,0.321,2.264,0.964,3.035c0.643,0.773,1.483,1.159,2.522,1.159c0.923,0,1.873-0.235,2.851-0.708v1.744
			C49.341,31.506,48.213,31.703,47.263,31.703z"/>
		<path fill="#929497" d="M53.798,18.291v-2.02h2.02v2.02H53.798z M53.798,31.447V20.312h2.02v11.136H53.798z"/>
		<path fill="#929497" d="M67.141,31.447v-2.092c-0.82,1.565-2.058,2.348-3.712,2.348c-1.34,0-2.395-0.488-3.163-1.466
			c-0.77-0.978-1.154-2.313-1.154-4.009c0-1.854,0.436-3.344,1.307-4.471c0.872-1.129,2.019-1.692,3.44-1.692
			c1.319,0,2.413,0.506,3.281,1.518v-6.327h2.03v16.191H67.141z M67.141,22.967c-1.046-0.922-2.037-1.384-2.974-1.384
			c-1.935,0-2.902,1.479-2.902,4.44c0,2.604,0.861,3.906,2.584,3.906c1.121,0,2.218-0.611,3.292-1.836V22.967z"/>
		<path fill="#929497" d="M79.08,30.032c-1.21,1.114-2.375,1.671-3.497,1.671c-0.923,0-1.688-0.288-2.297-0.866
			c-0.608-0.577-0.913-1.308-0.913-2.188c0-1.217,0.511-2.152,1.533-2.805c1.021-0.653,2.486-0.979,4.394-0.979h0.482v-1.343
			c0-1.293-0.663-1.938-1.989-1.938c-1.066,0-2.218,0.328-3.456,0.984v-1.671c1.36-0.555,2.635-0.831,3.825-0.831
			c1.244,0,2.162,0.28,2.753,0.841c0.591,0.561,0.887,1.432,0.887,2.615v5.045c0,1.154,0.355,1.732,1.066,1.732
			c0.089,0,0.219-0.014,0.39-0.041l0.144,1.117c-0.458,0.219-0.964,0.328-1.518,0.328C79.941,31.703,79.339,31.146,79.08,30.032z
			 M78.782,28.936v-2.882l-0.677-0.021c-1.107,0-2.003,0.21-2.687,0.631c-0.684,0.42-1.025,0.973-1.025,1.656
			c0,0.484,0.171,0.895,0.513,1.23c0.342,0.334,0.759,0.502,1.251,0.502C76.998,30.053,77.873,29.68,78.782,28.936z"/>
	</g>
	<g>
		<path fill="#929497" d="M103.846,31.037c-1.84,0.526-3.442,0.789-4.81,0.789c-2.413,0-4.264-0.687-5.553-2.061
			c-1.288-1.374-1.933-3.343-1.933-5.906c0-2.516,0.653-4.473,1.958-5.87c1.306-1.398,3.138-2.097,5.496-2.097
			c1.545,0,3.151,0.229,4.819,0.687v1.989c-2.092-0.711-3.694-1.066-4.809-1.066c-1.641,0-2.914,0.557-3.819,1.672
			c-0.906,1.113-1.359,2.683-1.359,4.706c0,2.003,0.485,3.56,1.456,4.671c0.971,1.11,2.331,1.666,4.081,1.666
			c0.717,0,1.494-0.127,2.328-0.379v-4.943h2.144V31.037z"/>
		<path fill="#929497" d="M107.807,31.447V20.312h2.02v2.092c0.8-1.559,1.962-2.338,3.486-2.338c0.205,0,0.42,0.017,0.646,0.052
			v1.887c-0.35-0.117-0.656-0.175-0.924-0.175c-1.277,0-2.348,0.759-3.209,2.276v7.342H107.807z"/>
		<path fill="#929497" d="M122.268,30.032c-1.211,1.114-2.376,1.671-3.497,1.671c-0.923,0-1.688-0.288-2.297-0.866
			c-0.608-0.577-0.913-1.308-0.913-2.188c0-1.217,0.512-2.152,1.533-2.805c1.022-0.653,2.486-0.979,4.395-0.979h0.481v-1.343
			c0-1.293-0.663-1.938-1.989-1.938c-1.066,0-2.219,0.328-3.455,0.984v-1.671c1.359-0.555,2.635-0.831,3.824-0.831
			c1.244,0,2.162,0.28,2.753,0.841c0.592,0.561,0.888,1.432,0.888,2.615v5.045c0,1.154,0.355,1.732,1.066,1.732
			c0.088,0,0.219-0.014,0.389-0.041l0.145,1.117c-0.459,0.219-0.965,0.328-1.518,0.328
			C123.129,31.703,122.527,31.146,122.268,30.032z M121.97,28.936v-2.882l-0.677-0.021c-1.107,0-2.003,0.21-2.687,0.631
			c-0.684,0.42-1.025,0.973-1.025,1.656c0,0.484,0.171,0.895,0.513,1.23c0.342,0.334,0.759,0.502,1.251,0.502
			C120.186,30.053,121.061,29.68,121.97,28.936z"/>
		<path fill="#929497" d="M128.248,31.447V20.312h2.02v2.092c1.066-1.559,2.373-2.338,3.918-2.338c0.963,0,1.732,0.306,2.307,0.918
			c0.574,0.611,0.861,1.434,0.861,2.466v7.998h-2.02v-7.342c0-0.827-0.122-1.417-0.364-1.769c-0.243-0.353-0.645-0.528-1.205-0.528
			c-1.237,0-2.403,0.811-3.497,2.43v7.209H128.248z"/>
		<path fill="#929497" d="M148.554,31.447v-2.092c-0.82,1.565-2.058,2.348-3.712,2.348c-1.34,0-2.395-0.488-3.163-1.466
			c-0.77-0.978-1.153-2.313-1.153-4.009c0-1.854,0.436-3.344,1.307-4.471c0.872-1.129,2.019-1.692,3.44-1.692
			c1.319,0,2.413,0.506,3.281,1.518v-6.327h2.03v16.191H148.554z M148.554,22.967c-1.046-0.922-2.037-1.384-2.974-1.384
			c-1.935,0-2.902,1.479-2.902,4.44c0,2.604,0.861,3.906,2.584,3.906c1.121,0,2.219-0.611,3.292-1.836V22.967z"/>
		<path fill="#929497" d="M162.912,31.088c-1.354,0.41-2.512,0.615-3.477,0.615c-1.641,0-2.979-0.545-4.014-1.635
			c-1.036-1.091-1.554-2.504-1.554-4.24c0-1.688,0.456-3.072,1.369-4.152c0.912-1.08,2.079-1.621,3.501-1.621
			c1.348,0,2.388,0.479,3.123,1.436c0.734,0.957,1.102,2.318,1.102,4.082l-0.01,0.625h-7.023c0.293,2.646,1.589,3.969,3.886,3.969
			c0.841,0,1.873-0.227,3.097-0.678V31.088z M156.021,24.68h4.912c0-2.071-0.773-3.107-2.318-3.107
			C157.064,21.572,156.199,22.608,156.021,24.68z"/>
	</g>
	<g>
		<path d="M20.331,180.169c-0.979,0.902-1.923,1.353-2.831,1.353c-0.747,0-1.367-0.233-1.859-0.701
			c-0.493-0.467-0.739-1.059-0.739-1.771c0-0.985,0.414-1.742,1.241-2.271s2.013-0.793,3.557-0.793h0.39v-1.087
			c0-1.047-0.537-1.569-1.61-1.569c-0.863,0-1.796,0.266-2.797,0.797v-1.353c1.101-0.449,2.133-0.673,3.096-0.673
			c1.007,0,1.75,0.228,2.229,0.681c0.479,0.454,0.718,1.159,0.718,2.117v4.084c0,0.935,0.288,1.402,0.863,1.402
			c0.072,0,0.177-0.011,0.315-0.033l0.116,0.904c-0.371,0.178-0.78,0.266-1.229,0.266C21.028,181.521,20.542,181.071,20.331,180.169
			z M20.09,179.281v-2.333l-0.548-0.017c-0.896,0-1.622,0.17-2.175,0.511c-0.554,0.34-0.83,0.787-0.83,1.341
			c0,0.393,0.138,0.725,0.415,0.996c0.276,0.271,0.614,0.406,1.013,0.406C18.646,180.186,19.354,179.884,20.09,179.281z"/>
		<path d="M28.284,181.414v-13.207h1.635v5.786c0.669-1.262,1.674-1.893,3.013-1.893c1.084,0,1.938,0.396,2.561,1.187
			c0.623,0.792,0.934,1.874,0.934,3.246c0,1.494-0.353,2.699-1.058,3.615c-0.706,0.916-1.634,1.373-2.785,1.373
			c-1.068,0-1.956-0.409-2.665-1.229l-0.199,1.121H28.284z M29.919,179.164c0.841,0.753,1.644,1.129,2.407,1.129
			c1.572,0,2.357-1.197,2.357-3.594c0-2.113-0.697-3.171-2.092-3.171c-0.913,0-1.804,0.495-2.673,1.485V179.164z"/>
		<path d="M45.716,181.521c-1.217,0-2.228-0.45-3.03-1.353c-0.803-0.901-1.204-2.039-1.204-3.411c0-1.467,0.397-2.609,1.191-3.429
			s1.902-1.229,3.325-1.229c0.703,0,1.489,0.097,2.357,0.29v1.37c-0.924-0.271-1.677-0.407-2.258-0.407
			c-0.835,0-1.506,0.314-2.013,0.942c-0.506,0.628-0.759,1.466-0.759,2.511c0,1.014,0.26,1.832,0.78,2.457
			c0.52,0.626,1.201,0.938,2.042,0.938c0.747,0,1.516-0.19,2.308-0.573v1.412C47.398,181.361,46.485,181.521,45.716,181.521z"/>
		<path d="M59.903,181.314v-1.693c-0.664,1.268-1.666,1.9-3.005,1.9c-1.085,0-1.938-0.395-2.561-1.187
			c-0.623-0.791-0.934-1.873-0.934-3.245c0-1.5,0.353-2.707,1.058-3.619c0.706-0.914,1.634-1.37,2.785-1.37
			c1.068,0,1.953,0.409,2.656,1.229v-5.122h1.644v13.107H59.903z M59.903,174.449c-0.847-0.746-1.649-1.12-2.407-1.12
			c-1.566,0-2.349,1.198-2.349,3.595c0,2.107,0.697,3.162,2.092,3.162c0.908,0,1.795-0.495,2.665-1.486V174.449z"/>
		<path d="M74.637,181.023c-1.096,0.332-2.034,0.498-2.814,0.498c-1.328,0-2.412-0.44-3.25-1.323
			c-0.839-0.883-1.258-2.026-1.258-3.433c0-1.367,0.369-2.487,1.108-3.361c0.738-0.875,1.684-1.312,2.834-1.312
			c1.09,0,1.933,0.388,2.528,1.162c0.595,0.775,0.892,1.877,0.892,3.305l-0.008,0.506h-5.686c0.238,2.142,1.287,3.213,3.146,3.213
			c0.681,0,1.516-0.184,2.507-0.549V181.023z M69.059,175.836h3.976c0-1.677-0.625-2.516-1.876-2.516
			C69.903,173.32,69.203,174.159,69.059,175.836z"/>
		<path d="M82.665,173.528v7.786h-1.644v-7.786h-1.278V172.3h1.278v-1.079c0-2.146,0.979-3.221,2.938-3.221
			c0.548,0,1.17,0.092,1.868,0.273v1.295c-0.736-0.227-1.326-0.34-1.768-0.34c-0.537,0-0.903,0.129-1.1,0.386
			c-0.197,0.258-0.295,0.735-0.295,1.433v1.253h2.25v1.229H82.665z"/>
		<path d="M90.21,184.311l0.191-1.419c0.946,0.448,1.878,0.673,2.797,0.673c1.843,0,2.764-0.978,2.764-2.931v-1.419
			c-0.603,1.262-1.594,1.893-2.972,1.893c-1.079,0-1.937-0.394-2.573-1.18c-0.636-0.785-0.955-1.845-0.955-3.179
			c0-1.372,0.362-2.49,1.087-3.354s1.663-1.295,2.814-1.295c1.007,0,1.873,0.409,2.598,1.229V172.3h1.644v6.558
			c0,1.411-0.074,2.456-0.22,3.134s-0.422,1.232-0.826,1.664c-0.714,0.758-1.824,1.138-3.329,1.138
			C92.18,184.793,91.173,184.632,90.21,184.311z M95.963,178.193v-3.744c-0.719-0.746-1.502-1.12-2.349-1.12
			c-0.753,0-1.342,0.302-1.768,0.905c-0.426,0.603-0.639,1.43-0.639,2.481c0,1.976,0.694,2.964,2.083,2.964
			C94.236,179.68,95.127,179.184,95.963,178.193z"/>
		<path d="M103.99,181.314v-13.107h1.636v5.786c0.863-1.262,1.921-1.893,3.171-1.893c0.78,0,1.402,0.248,1.867,0.743
			s0.697,1.16,0.697,1.996v6.475h-1.635v-5.943c0-0.67-0.098-1.146-0.295-1.432c-0.196-0.285-0.521-0.428-0.975-0.428
			c-1.002,0-1.945,0.656-2.831,1.967v5.836H103.99z"/>
		<path d="M117.754,170.664v-1.635h1.635v1.635H117.754z M117.754,181.314V172.3h1.635v9.015H117.754z"/>
		<path d="M122.967,184.377v-1.295c0.764,0.321,1.346,0.482,1.744,0.482c0.574,0,0.957-0.15,1.145-0.449
			c0.188-0.299,0.283-0.898,0.283-1.801V172.3h1.643v9.015c0,2.318-0.979,3.479-2.938,3.479
			C124.262,184.793,123.637,184.654,122.967,184.377z M126.139,170.664v-1.635h1.643v1.635H126.139z"/>
		<path d="M134.266,181.314v-13.107h1.635v8.467l3.818-4.374h1.76l-3.645,4.208l4.4,4.807h-2.092l-4.242-4.623v4.623H134.266z"/>
		<path d="M147.414,181.314v-13.107h1.635v13.107H147.414z"/>
		<path d="M155.541,181.314V172.3h1.636v1.693c0.797-1.262,1.821-1.893,3.071-1.893c1.207,0,2.027,0.631,2.465,1.893
			c0.775-1.267,1.782-1.901,3.021-1.901c0.797,0,1.414,0.234,1.852,0.702s0.656,1.122,0.656,1.963v6.558h-1.645v-6.301
			c0-1.029-0.406-1.543-1.22-1.543c-0.847,0-1.735,0.6-2.665,1.801v6.043h-1.643v-6.301c0-1.034-0.416-1.552-1.246-1.552
			c-0.824,0-1.707,0.604-2.647,1.81v6.043H155.541z"/>
	</g>
	<g>
		<path d="M15.683,200.314V191.3h1.635v1.693c0.863-1.262,1.92-1.893,3.171-1.893c0.78,0,1.403,0.248,1.868,0.743
			s0.697,1.16,0.697,1.996v6.475h-1.635v-5.943c0-0.67-0.099-1.146-0.295-1.432s-0.521-0.428-0.975-0.428
			c-1.001,0-1.945,0.656-2.831,1.967v5.836H15.683z"/>
		<path d="M32.974,200.521c-1.29,0-2.319-0.427-3.088-1.282c-0.769-0.854-1.154-1.999-1.154-3.433c0-1.449,0.386-2.596,1.158-3.44
			c0.771-0.844,1.819-1.266,3.142-1.266c1.322,0,2.37,0.422,3.142,1.266c0.772,0.845,1.158,1.985,1.158,3.425
			c0,1.472-0.388,2.628-1.162,3.469C35.395,200.102,34.33,200.521,32.974,200.521z M32.999,199.293c1.732,0,2.598-1.167,2.598-3.502
			c0-2.309-0.855-3.462-2.565-3.462c-1.705,0-2.557,1.159-2.557,3.478C30.475,198.131,31.316,199.293,32.999,199.293z"/>
		<path d="M43.101,203.594V191.3h1.635v1.693c0.669-1.262,1.674-1.893,3.013-1.893c1.084,0,1.938,0.396,2.561,1.187
			c0.623,0.792,0.934,1.874,0.934,3.246c0,1.494-0.353,2.699-1.058,3.615c-0.706,0.916-1.634,1.373-2.785,1.373
			c-1.068,0-1.956-0.409-2.665-1.229v4.301H43.101z M44.736,198.164c0.841,0.753,1.644,1.129,2.407,1.129
			c1.572,0,2.357-1.197,2.357-3.594c0-2.113-0.697-3.171-2.092-3.171c-0.913,0-1.804,0.495-2.673,1.485V198.164z"/>
		<path d="M62.8,203.594v-4.973c-0.664,1.268-1.666,1.9-3.005,1.9c-1.084,0-1.938-0.395-2.561-1.187
			c-0.622-0.791-0.934-1.873-0.934-3.245c0-1.5,0.353-2.707,1.059-3.619c0.705-0.914,1.634-1.37,2.785-1.37
			c1.068,0,1.954,0.409,2.656,1.229V191.3h1.644v12.294H62.8z M62.8,193.449c-0.847-0.746-1.649-1.12-2.407-1.12
			c-1.566,0-2.349,1.198-2.349,3.595c0,2.107,0.697,3.162,2.092,3.162c0.907,0,1.796-0.495,2.665-1.486V193.449z"/>
		<path d="M70.927,200.314V191.3h1.635v1.693c0.647-1.262,1.588-1.893,2.822-1.893c0.166,0,0.34,0.014,0.523,0.042v1.527
			c-0.282-0.095-0.531-0.142-0.747-0.142c-1.035,0-1.901,0.614-2.598,1.843v5.943H70.927z"/>
		<path d="M83.486,200.521c-0.747,0-1.655-0.174-2.723-0.522v-1.503c1.068,0.531,1.998,0.797,2.789,0.797
			c0.47,0,0.86-0.127,1.17-0.381c0.31-0.255,0.465-0.573,0.465-0.955c0-0.559-0.435-1.021-1.303-1.387l-0.955-0.406
			c-1.411-0.586-2.117-1.431-2.117-2.531c0-0.786,0.278-1.404,0.834-1.855c0.556-0.451,1.318-0.677,2.287-0.677
			c0.503,0,1.126,0.069,1.868,0.208l0.34,0.066v1.361c-0.913-0.271-1.638-0.407-2.175-0.407c-1.051,0-1.577,0.382-1.577,1.146
			c0,0.492,0.398,0.908,1.195,1.245l0.789,0.332c0.891,0.376,1.521,0.773,1.893,1.191c0.371,0.418,0.556,0.939,0.556,1.564
			c0,0.792-0.313,1.441-0.938,1.95C85.26,200.268,84.46,200.521,83.486,200.521z"/>
		<path d="M95.681,200.521c-0.83,0-1.478-0.237-1.942-0.713c-0.465-0.477-0.697-1.138-0.697-1.984v-5.296h-1.129V191.3h1.129v-1.636
			l1.635-0.157v1.793h2.357v1.229h-2.357v4.997c0,1.179,0.509,1.768,1.527,1.768c0.216,0,0.479-0.035,0.789-0.107v1.129
			C96.489,200.453,96.051,200.521,95.681,200.521z"/>
		<path d="M108.183,200.314v-1.693c-0.868,1.268-1.923,1.9-3.163,1.9c-0.785,0-1.41-0.247-1.875-0.742s-0.697-1.164-0.697-2.005
			V191.3h1.635v5.943c0,0.675,0.098,1.155,0.295,1.44c0.195,0.285,0.523,0.428,0.983,0.428c0.996,0,1.937-0.656,2.822-1.968V191.3
			h1.636v9.015H108.183z"/>
		<path d="M118.178,200.314l-3.354-9.015h1.635l2.623,7.015l2.764-7.015h1.527l-3.561,9.015H118.178z"/>
		<path d="M129.367,200.314l-2.582-9.015h1.603l1.976,6.981l2.133-6.981h1.636l1.868,6.981l2.266-6.981h1.402l-2.938,9.015h-1.645
			l-1.908-6.98l-2.158,6.98H129.367z"/>
		<path d="M143.729,200.314l3.428-4.656l-3.328-4.358h1.941l2.632,3.47l2.382-3.47h1.594l-3.121,4.573l3.396,4.441h-1.942
			l-2.715-3.569l-2.623,3.569H143.729z"/>
		<path d="M158.795,203.594l1.461-3.279l-3.486-9.015h1.768l2.582,6.79l2.756-6.79h1.543l-4.922,12.294H158.795z"/>
		<path d="M169.752,200.314v-1.229l5.578-6.558h-5.32V191.3h7.338v1.229l-5.578,6.558h5.686v1.229H169.752z"/>
	</g>
	<g>
		<path fill="#FFFFFF" d="M57.401,219.621c-1.268,0-2.292-0.596-3.075-1.788c-0.783-1.192-1.175-2.749-1.175-4.669
			c0-1.938,0.395-3.495,1.183-4.674c0.789-1.179,1.828-1.768,3.117-1.768c1.289,0,2.328,0.589,3.117,1.768
			c0.788,1.179,1.183,2.729,1.183,4.648c0,1.971-0.395,3.543-1.183,4.719C59.779,219.033,58.723,219.621,57.401,219.621z
			 M57.417,218.393c1.732,0,2.598-1.76,2.598-5.279c0-3.441-0.855-5.162-2.565-5.162c-1.705,0-2.557,1.737-2.557,5.213
			C54.894,216.65,55.735,218.393,57.417,218.393z"/>
		<path fill="#FFFFFF" d="M66.551,219.314v-1.229h2.457v-9.695l-2.457,0.614v-1.262l4.101-1.021v11.363h2.457v1.229H66.551z"/>
		<path fill="#FFFFFF" d="M77.328,219.314v-1.436c0.476-1.113,1.439-2.324,2.889-3.637l0.938-0.838
			c1.206-1.09,1.81-2.172,1.81-3.246c0-0.686-0.206-1.225-0.618-1.618c-0.413-0.393-0.979-0.589-1.698-0.589
			c-0.852,0-1.857,0.329-3.013,0.987v-1.444c1.09-0.515,2.172-0.771,3.246-0.771c1.151,0,2.075,0.31,2.772,0.93
			c0.697,0.619,1.046,1.441,1.046,2.465c0,0.736-0.176,1.389-0.527,1.959c-0.352,0.57-1.006,1.262-1.963,2.075l-0.631,0.54
			c-1.312,1.111-2.07,2.174-2.274,3.188h5.337v1.436H77.328z"/>
	</g>
	<g>
		<path fill="#FFFFFF" d="M91.177,219.223v-1.527c1.173,0.465,2.097,0.697,2.772,0.697c0.78,0,1.415-0.228,1.905-0.685
			c0.489-0.456,0.734-1.047,0.734-1.772c0-1.727-1.209-2.59-3.627-2.59h-0.647v-1.104l0.573-0.008c2.269,0,3.403-0.8,3.403-2.399
			c0-1.256-0.747-1.884-2.241-1.884c-0.819,0-1.721,0.229-2.706,0.688v-1.428c0.968-0.326,1.909-0.489,2.822-0.489
			c2.512,0,3.769,0.949,3.769,2.847c0,1.444-0.855,2.474-2.565,3.088c1.981,0.46,2.972,1.544,2.972,3.254
			c0,1.157-0.382,2.064-1.146,2.723c-0.764,0.659-1.812,0.987-3.146,0.987C93.291,219.621,92.333,219.488,91.177,219.223z"/>
		<path fill="#FFFFFF" d="M109.388,219.314v-3.479h-5.528V214.6l5.528-7.57h1.536v7.471h1.643v1.336h-1.643v3.479H109.388z
			 M105.461,214.5h4.035v-5.462L105.461,214.5z"/>
		<path fill="#FFFFFF" d="M118.592,219.364v-1.461c0.814,0.327,1.589,0.489,2.324,0.489c0.809,0,1.443-0.237,1.905-0.713
			c0.462-0.477,0.693-1.132,0.693-1.968c0-1.843-1.271-2.765-3.81-2.765c-0.288,0-0.59,0.02-0.905,0.059v-5.977h6.218v1.428h-4.781
			v3.237c1.576,0,2.808,0.362,3.693,1.087c0.885,0.726,1.328,1.73,1.328,3.014c0,1.195-0.402,2.132-1.208,2.81
			c-0.805,0.679-1.921,1.017-3.349,1.017C120.081,219.621,119.378,219.535,118.592,219.364z"/>
		<path fill="#FFFFFF" d="M132.984,212.947c0.78-1.012,1.763-1.519,2.947-1.519c1.073,0,1.951,0.355,2.635,1.066
			c0.684,0.712,1.025,1.623,1.025,2.735c0,1.278-0.383,2.33-1.149,3.154s-1.739,1.236-2.918,1.236c-1.356,0-2.415-0.545-3.179-1.635
			s-1.146-2.604-1.146-4.541c0-2.13,0.439-3.785,1.316-4.963c0.877-1.18,2.112-1.769,3.706-1.769c0.73,0,1.644,0.155,2.739,0.465
			v1.428c-1.156-0.442-2.104-0.664-2.839-0.664C134.03,207.942,132.984,209.611,132.984,212.947z M137.948,215.596
			c0-0.93-0.209-1.66-0.627-2.191s-0.997-0.797-1.739-0.797c-0.691,0-1.286,0.232-1.784,0.697s-0.747,1.023-0.747,1.677
			c0,1.029,0.236,1.855,0.71,2.478c0.473,0.623,1.1,0.934,1.88,0.934c0.703,0,1.263-0.253,1.681-0.759
			C137.739,217.127,137.948,216.448,137.948,215.596z"/>
		<path fill="#FFFFFF" d="M146.156,219.314c0.161-0.957,0.389-1.785,0.686-2.482c0.296-0.697,0.82-1.654,1.572-2.871l3.354-5.396
			h-6.324v-1.535h7.885v1.535c-3.148,4.644-4.911,8.227-5.287,10.75H146.156z"/>
		<path fill="#FFFFFF" d="M161.047,212.624c-1.2-0.835-1.801-1.76-1.801-2.772c0-0.93,0.34-1.686,1.021-2.266
			c0.68-0.582,1.568-0.872,2.664-0.872c1.013,0,1.833,0.246,2.461,0.739c0.628,0.492,0.942,1.131,0.942,1.917
			c0,1.19-0.764,2.274-2.291,3.254c1.854,0.907,2.78,2.078,2.78,3.511c0,1.029-0.389,1.868-1.166,2.516s-1.78,0.971-3.009,0.971
			c-1.206,0-2.182-0.306-2.926-0.917c-0.745-0.611-1.116-1.415-1.116-2.411C158.607,214.821,159.42,213.598,161.047,212.624z
			 M161.936,213.288c-0.658,0.509-1.105,0.953-1.341,1.332c-0.235,0.38-0.353,0.851-0.353,1.415c0,0.703,0.227,1.271,0.681,1.706
			s1.052,0.651,1.793,0.651c0.714,0,1.296-0.185,1.747-0.556c0.451-0.37,0.677-0.853,0.677-1.444c0-0.476-0.14-0.879-0.419-1.208
			s-0.82-0.731-1.623-1.208L161.936,213.288z M163.131,212.109c1.146-0.752,1.719-1.591,1.719-2.516c0-0.492-0.191-0.889-0.573-1.19
			s-0.886-0.452-1.511-0.452c-0.604,0-1.093,0.147-1.469,0.443c-0.377,0.297-0.564,0.68-0.564,1.15c0,0.459,0.17,0.87,0.51,1.232
			C161.583,211.14,162.212,211.584,163.131,212.109z"/>
		<path fill="#FFFFFF" d="M172.609,219.24v-1.387c1.04,0.359,1.926,0.539,2.656,0.539c1.018,0,1.813-0.433,2.387-1.299
			c0.572-0.865,0.859-2.07,0.859-3.615c-0.83,1.024-1.774,1.536-2.831,1.536c-1.035,0-1.912-0.38-2.632-1.142
			c-0.719-0.761-1.078-1.689-1.078-2.785c0-1.256,0.383-2.297,1.149-3.125c0.767-0.827,1.73-1.24,2.893-1.24
			c1.333,0,2.385,0.535,3.154,1.605c0.769,1.071,1.153,2.536,1.153,4.396c0,2.114-0.469,3.792-1.406,5.034
			c-0.938,1.242-2.207,1.863-3.807,1.863C174.466,219.621,173.633,219.494,172.609,219.24z M173.605,210.765
			c0,0.952,0.212,1.702,0.635,2.249c0.424,0.549,1.003,0.822,1.739,0.822c0.691,0,1.282-0.235,1.772-0.705
			c0.489-0.471,0.734-1.038,0.734-1.702c0-1.046-0.236-1.889-0.71-2.527c-0.473-0.64-1.095-0.959-1.863-0.959
			c-0.714,0-1.277,0.253-1.689,0.76C173.812,209.208,173.605,209.896,173.605,210.765z"/>
	</g>
	<g>
		<path fill="#FFFFFF" d="M166.333,101.551c-5.82,5.359-11.426,8.038-16.817,8.038c-4.438,0-8.121-1.389-11.047-4.167
			c-2.926-2.777-4.389-6.287-4.389-10.529c0-5.852,2.457-10.348,7.372-13.487s11.959-4.71,21.133-4.71h2.317v-6.461
			c0-6.213-3.189-9.32-9.567-9.32c-5.129,0-10.669,1.578-16.619,4.734v-8.039c6.542-2.662,12.674-3.994,18.395-3.994
			c5.983,0,10.397,1.349,13.241,4.044c2.844,2.696,4.267,6.888,4.267,12.575v24.264c0,5.557,1.709,8.335,5.129,8.335
			c0.427,0,1.052-0.065,1.874-0.197l0.69,5.375c-2.203,1.052-4.637,1.578-7.299,1.578
			C170.476,109.589,167.582,106.91,166.333,101.551z M164.902,96.273V82.416l-3.255-0.099c-5.326,0-9.634,1.012-12.921,3.033
			c-3.288,2.021-4.932,4.677-4.932,7.964c0,2.335,0.821,4.308,2.466,5.919c1.644,1.611,3.649,2.416,6.017,2.416
			C156.321,101.649,160.529,99.857,164.902,96.273z"/>
	</g>
	<g>
		<path d="M28.623,71.416l-1.729-4.404h-6.735l-1.751,4.404h-2.095l6.306-15.898h2.234l6.209,15.898H28.623z M26.238,65.336
			l-2.707-6.854l-2.718,6.854H26.238z"/>
		<path d="M39.858,69.949c-1.268,1.168-2.489,1.751-3.663,1.751c-0.967,0-1.769-0.303-2.406-0.907
			c-0.638-0.605-0.956-1.37-0.956-2.294c0-1.274,0.535-2.254,1.606-2.938c1.071-0.684,2.605-1.025,4.603-1.025h0.505v-1.407
			c0-1.354-0.695-2.03-2.084-2.03c-1.117,0-2.324,0.344-3.62,1.031v-1.751c1.425-0.58,2.761-0.87,4.007-0.87
			c1.303,0,2.265,0.294,2.884,0.881c0.62,0.588,0.929,1.5,0.929,2.739v5.285c0,1.21,0.372,1.815,1.117,1.815
			c0.093,0,0.229-0.014,0.408-0.043l0.15,1.171c-0.48,0.229-1.01,0.344-1.59,0.344C40.761,71.7,40.13,71.117,39.858,69.949z
			 M39.547,68.8v-3.019l-0.709-0.021c-1.16,0-2.099,0.221-2.814,0.66c-0.716,0.441-1.074,1.02-1.074,1.735
			c0,0.509,0.179,0.938,0.537,1.289c0.358,0.351,0.795,0.526,1.311,0.526C37.678,69.971,38.594,69.58,39.547,68.8z"/>
	</g>
	<g>
		<path d="M15.468,97.816l6.188-15.898h3.309l6.188,15.898h-3.395l-1.654-4.243h-6.574l-1.654,4.243H15.468z M20.345,91.457h4.941
			l-2.471-6.338L20.345,91.457z"/>
		<path d="M39.627,96.564c-1.06,1.024-2.195,1.536-3.405,1.536c-1.031,0-1.869-0.315-2.514-0.945s-0.967-1.446-0.967-2.449
			c0-1.304,0.521-2.308,1.563-3.013c1.042-0.706,2.533-1.059,4.474-1.059h0.849v-1.074c0-1.225-0.698-1.837-2.095-1.837
			c-1.239,0-2.492,0.351-3.76,1.053v-2.191c1.439-0.544,2.865-0.816,4.275-0.816c3.086,0,4.63,1.229,4.63,3.685v5.221
			c0,0.924,0.297,1.386,0.892,1.386c0.107,0,0.247-0.015,0.419-0.043l0.075,1.783c-0.673,0.2-1.268,0.301-1.783,0.301
			c-1.303,0-2.141-0.512-2.514-1.536H39.627z M39.627,94.856v-2.396h-0.752c-2.055,0-3.083,0.645-3.083,1.934
			c0,0.438,0.148,0.804,0.446,1.102c0.297,0.297,0.664,0.445,1.101,0.445C38.083,95.941,38.846,95.58,39.627,94.856z"/>
	</g>
	<g>
		<path d="M67.678,74.611c-2.5-0.81-4.594-1.772-6.284-2.89c-0.673,0.071-1.192,0.107-1.558,0.107c-2.134,0-3.869-0.773-5.205-2.32
			s-2.003-3.556-2.003-6.026c0-2.535,0.675-4.561,2.025-6.074c1.35-1.516,3.153-2.272,5.409-2.272c2.263,0,4.067,0.759,5.414,2.277
			c1.346,1.519,2.02,3.552,2.02,6.102c0,3.652-1.357,6.181-4.071,7.584c1.826,0.802,3.72,1.375,5.683,1.719L67.678,74.611z
			 M59.998,70.143c1.625,0,2.882-0.584,3.771-1.751c0.888-1.167,1.332-2.817,1.332-4.952c0-2.069-0.444-3.689-1.332-4.861
			c-0.888-1.17-2.124-1.756-3.706-1.756c-1.583,0-2.818,0.586-3.706,1.756c-0.888,1.172-1.332,2.799-1.332,4.883
			c0,2.077,0.44,3.71,1.321,4.898C57.226,69.549,58.443,70.143,59.998,70.143z"/>
		<path d="M78.624,75.675V69.24c-0.859,1.641-2.156,2.46-3.889,2.46c-1.404,0-2.508-0.512-3.314-1.536
			c-0.806-1.023-1.208-2.424-1.208-4.2c0-1.94,0.457-3.502,1.37-4.684s2.114-1.772,3.604-1.772c1.382,0,2.528,0.53,3.438,1.59
			v-1.332h2.127v15.909H78.624z M78.624,62.548c-1.096-0.967-2.134-1.45-3.115-1.45c-2.027,0-3.04,1.551-3.04,4.651
			c0,2.729,0.902,4.093,2.707,4.093c1.174,0,2.324-0.641,3.448-1.923V62.548z"/>
	</g>
	<g>
		<path d="M67.68,101.012c-2.851-0.752-5.171-1.697-6.961-2.836c-0.523,0.035-0.91,0.054-1.16,0.054
			c-2.406,0-4.333-0.759-5.779-2.277c-1.447-1.519-2.17-3.541-2.17-6.069c0-2.557,0.727-4.587,2.181-6.091
			c1.454-1.504,3.416-2.256,5.887-2.256s4.431,0.754,5.881,2.261c1.45,1.508,2.175,3.547,2.175,6.118
			c0,3.609-1.415,6.127-4.243,7.552c2.084,0.716,4.196,1.188,6.338,1.418L67.68,101.012z M59.623,96.038
			c1.411,0,2.53-0.555,3.357-1.665c0.827-1.109,1.241-2.617,1.241-4.522c0-1.854-0.414-3.341-1.241-4.458s-1.928-1.676-3.303-1.676
			c-1.382,0-2.487,0.559-3.314,1.676s-1.241,2.61-1.241,4.479c0,1.854,0.412,3.347,1.235,4.474
			C57.181,95.475,58.27,96.038,59.623,96.038z"/>
		<path d="M78.583,102.075v-6.467c-0.816,1.661-2.102,2.492-3.856,2.492c-1.418,0-2.532-0.519-3.341-1.558
			c-0.809-1.038-1.214-2.467-1.214-4.286c0-1.977,0.457-3.552,1.37-4.727s2.14-1.762,3.679-1.762c1.232,0,2.353,0.487,3.362,1.461
			l0.397-1.192h2.793v16.038H78.583z M78.583,89.12c-0.766-0.859-1.586-1.289-2.46-1.289c-0.781,0-1.404,0.376-1.869,1.128
			s-0.698,1.762-0.698,3.029c0,2.414,0.773,3.62,2.32,3.62c0.945,0,1.848-0.604,2.707-1.815V89.12z"/>
	</g>
	<g>
		<path d="M92.395,71.416V55.518h4.812c1.525,0,2.694,0.337,3.508,1.01c0.812,0.674,1.219,1.65,1.219,2.933
			c0,2.12-1.07,3.624-3.212,4.512l5.307,7.444h-2.771l-4.522-6.725h-2.105v6.725H92.395z M94.629,63.005h0.73
			c2.836,0,4.254-1.113,4.254-3.341c0-1.64-1.189-2.46-3.566-2.46h-1.418V63.005z"/>
		<path d="M106.788,71.432V59.766h2.116v2.191c0.838-1.633,2.055-2.449,3.652-2.449c0.215,0,0.44,0.018,0.677,0.054v1.977
			c-0.365-0.122-0.688-0.183-0.967-0.183c-1.339,0-2.46,0.795-3.362,2.385v7.691H106.788z"/>
	</g>
	<g>
		<path d="M91.177,97.816V81.918h5.951c3.229,0,4.844,1.314,4.844,3.942c0,0.981-0.273,1.874-0.821,2.681
			c-0.548,0.805-1.302,1.423-2.261,1.853l5.2,7.423h-4.029l-3.942-6.499h-1.826v6.499H91.177z M94.292,89.137h0.763
			c2.399,0,3.599-0.971,3.599-2.911c0-1.418-1.071-2.127-3.212-2.127h-1.149V89.137z"/>
		<path d="M106.796,97.832V86.037h3.18v2.224c0.823-1.661,2.077-2.492,3.76-2.492c0.2,0,0.397,0.021,0.591,0.064v2.836
			c-0.451-0.165-0.87-0.247-1.257-0.247c-1.268,0-2.299,0.641-3.094,1.923v7.487H106.796z"/>
	</g>
	<g>
		<path fill="#929497" d="M53.8,141.034v-15.176h5.291c1.846,0,3.164,0.31,3.953,0.928c0.79,0.619,1.185,1.652,1.185,3.102
			c0,1.641-0.528,2.918-1.584,3.83c-1.057,0.913-2.535,1.369-4.435,1.369h-1.312v5.947H53.8z M56.896,133.005h0.615
			c1.08,0,1.933-0.251,2.558-0.753c0.626-0.503,0.938-1.185,0.938-2.046c0-1.511-0.96-2.266-2.881-2.266h-1.23V133.005z"/>
		<path fill="#929497" d="M66.826,141.034v-11.259h3.035v2.122c0.786-1.586,1.982-2.379,3.589-2.379
			c0.191,0,0.379,0.021,0.564,0.062v2.707c-0.431-0.158-0.831-0.236-1.2-0.236c-1.21,0-2.194,0.611-2.953,1.836v7.146H66.826z"/>
		<path fill="#929497" d="M85.686,140.655c-1.442,0.424-2.81,0.635-4.102,0.635c-1.88,0-3.363-0.533-4.45-1.6
			s-1.63-2.521-1.63-4.367c0-1.744,0.498-3.146,1.492-4.21c0.995-1.062,2.309-1.595,3.943-1.595c1.647,0,2.851,0.52,3.609,1.559
			s1.138,2.684,1.138,4.933h-6.983c0.205,2.146,1.384,3.22,3.538,3.22c1.019,0,2.167-0.236,3.445-0.707V140.655z M78.662,134.298
			h4.04c0-1.922-0.619-2.882-1.856-2.882C79.588,131.416,78.86,132.376,78.662,134.298z"/>
		<path fill="#929497" d="M89.289,141.034v-9.361H87.74v-1.897h1.548v-0.81c0-2.92,1.384-4.379,4.153-4.379
			c0.896,0,1.818,0.13,2.769,0.39v2.051c-0.861-0.362-1.634-0.544-2.317-0.544c-1.046,0-1.569,0.79-1.569,2.369v0.923h2.851v1.897
			h-2.851v9.361H89.289z"/>
		<path fill="#929497" d="M106.99,140.655c-1.442,0.424-2.81,0.635-4.102,0.635c-1.88,0-3.363-0.533-4.45-1.6
			s-1.63-2.521-1.63-4.367c0-1.744,0.497-3.146,1.492-4.21c0.994-1.062,2.309-1.595,3.942-1.595c1.648,0,2.852,0.52,3.609,1.559
			c0.76,1.039,1.139,2.684,1.139,4.933h-6.982c0.205,2.146,1.384,3.22,3.537,3.22c1.019,0,2.167-0.236,3.445-0.707V140.655z
			 M99.966,134.298h4.04c0-1.922-0.618-2.882-1.855-2.882C100.893,131.416,100.164,132.376,99.966,134.298z"/>
		<path fill="#929497" d="M110.275,141.034v-11.259h3.035v2.122c0.785-1.586,1.982-2.379,3.588-2.379
			c0.191,0,0.38,0.021,0.564,0.062v2.707c-0.431-0.158-0.83-0.236-1.199-0.236c-1.211,0-2.195,0.611-2.953,1.836v7.146H110.275z"/>
		<path fill="#929497" d="M129.135,140.655c-1.441,0.424-2.809,0.635-4.102,0.635c-1.879,0-3.363-0.533-4.449-1.6
			c-1.088-1.066-1.631-2.521-1.631-4.367c0-1.744,0.498-3.146,1.492-4.21c0.994-1.062,2.309-1.595,3.942-1.595
			c1.647,0,2.851,0.52,3.609,1.559s1.138,2.684,1.138,4.933h-6.982c0.205,2.146,1.385,3.22,3.537,3.22
			c1.02,0,2.168-0.236,3.445-0.707V140.655z M122.111,134.298h4.04c0-1.922-0.618-2.882-1.856-2.882
			C123.037,131.416,122.31,132.376,122.111,134.298z"/>
		<path fill="#929497" d="M132.42,141.034v-11.259h3.035v2.122c0.991-1.586,2.27-2.379,3.835-2.379c1.005,0,1.798,0.318,2.379,0.954
			s0.872,1.504,0.872,2.604v7.957h-3.035v-7.209c0-1.277-0.424-1.917-1.271-1.917c-0.965,0-1.891,0.681-2.779,2.04v7.086H132.42z"/>
		<path fill="#929497" d="M154.664,140.788c-1.258,0.335-2.424,0.502-3.496,0.502c-1.799,0-3.219-0.527-4.262-1.584
			c-1.041-1.056-1.562-2.493-1.562-4.312c0-1.839,0.536-3.278,1.609-4.317s2.557-1.559,4.45-1.559c0.916,0,1.972,0.147,3.169,0.441
			v2.194c-1.244-0.403-2.239-0.604-2.984-0.604c-0.909,0-1.641,0.348-2.194,1.045s-0.831,1.624-0.831,2.779
			c0,1.183,0.299,2.129,0.898,2.84c0.598,0.711,1.396,1.066,2.394,1.066c0.909,0,1.846-0.197,2.81-0.594V140.788z"/>
		<path fill="#929497" d="M166.85,140.655c-1.442,0.424-2.81,0.635-4.102,0.635c-1.88,0-3.363-0.533-4.45-1.6
			s-1.63-2.521-1.63-4.367c0-1.744,0.496-3.146,1.492-4.21c0.994-1.062,2.309-1.595,3.941-1.595c1.648,0,2.852,0.52,3.609,1.559
			c0.76,1.039,1.139,2.684,1.139,4.933h-6.982c0.205,2.146,1.384,3.22,3.537,3.22c1.019,0,2.167-0.236,3.445-0.707V140.655z
			 M159.826,134.298h4.039c0-1.922-0.618-2.882-1.855-2.882C160.752,131.416,160.023,132.376,159.826,134.298z"/>
		<path fill="#929497" d="M169.837,140.675v-2.225c1.504,0.629,2.789,0.943,3.855,0.943c1.244,0,1.866-0.424,1.866-1.271
			c0-0.547-0.513-1.025-1.538-1.436l-1.025-0.41c-1.114-0.451-1.911-0.937-2.39-1.456s-0.717-1.162-0.717-1.928
			c0-1.066,0.406-1.896,1.22-2.486c0.813-0.592,1.952-0.888,3.415-0.888c0.916,0,2.006,0.134,3.271,0.4v2.133
			c-1.217-0.424-2.226-0.636-3.024-0.636c-1.258,0-1.887,0.39-1.887,1.169c0,0.513,0.465,0.947,1.395,1.303l0.881,0.338
			c1.32,0.499,2.238,1.005,2.754,1.518s0.773,1.172,0.773,1.979c0,1.061-0.439,1.92-1.316,2.579
			c-0.879,0.66-2.022,0.989-3.431,0.989C172.585,141.29,171.218,141.085,169.837,140.675z"/>
	</g>
</g>
</svg>
